<svg id="visual" viewBox="0 0 900 600" width="900" height="600" xmlns="http://www.w3.org/2000/svg" xmlns:xlink="http://www.w3.org/1999/xlink" version="1.1"><rect x="0" y="0" width="900" height="600" fill="#fff"></rect><path d="M0 464L21.5 460.7C43 457.3 86 450.7 128.8 444.2C171.7 437.7 214.3 431.3 257.2 431.2C300 431 343 437 385.8 426.8C428.7 416.7 471.3 390.3 514.2 397C557 403.7 600 443.3 642.8 444.5C685.7 445.7 728.3 408.3 771.2 402C814 395.7 857 420.3 878.5 432.7L900 445L900 601L878.5 601C857 601 814 601 771.2 601C728.3 601 685.7 601 642.8 601C600 601 557 601 514.2 601C471.3 601 428.7 601 385.8 601C343 601 300 601 257.2 601C214.3 601 171.7 601 128.8 601C86 601 43 601 21.5 601L0 601Z" fill="#fffbe9"></path><path d="M0 480L21.5 483.8C43 487.7 86 495.3 128.8 505.8C171.7 516.3 214.3 529.7 257.2 535C300 540.3 343 537.7 385.8 531C428.7 524.3 471.3 513.7 514.2 501.5C557 489.3 600 475.7 642.8 475C685.7 474.3 728.3 486.7 771.2 488.5C814 490.3 857 481.7 878.5 477.3L900 473L900 601L878.5 601C857 601 814 601 771.2 601C728.3 601 685.7 601 642.8 601C600 601 557 601 514.2 601C471.3 601 428.7 601 385.8 601C343 601 300 601 257.2 601C214.3 601 171.7 601 128.8 601C86 601 43 601 21.5 601L0 601Z" fill="#ceab93"></path></svg>