<svg id="visual" viewBox="0 0 960 540" width="960" height="540" xmlns="http://www.w3.org/2000/svg" xmlns:xlink="http://www.w3.org/1999/xlink" version="1.1"><rect x="0" y="0" width="960" height="540" fill="#fff"></rect><path d="M0 417L22.8 414C45.7 411 91.3 405 137 399.2C182.7 393.3 228.3 387.7 274 387.5C319.7 387.3 365.3 392.7 411.2 383.7C457 374.7 503 351.3 548.8 357.3C594.7 363.3 640.3 398.7 686 399.7C731.7 400.7 777.3 367.3 823 361.8C868.7 356.3 914.3 378.7 937.2 389.8L960 401L960 541L937.2 541C914.3 541 868.7 541 823 541C777.3 541 731.7 541 686 541C640.3 541 594.7 541 548.8 541C503 541 457 541 411.2 541C365.3 541 319.7 541 274 541C228.3 541 182.7 541 137 541C91.3 541 45.7 541 22.8 541L0 541Z" fill="#fffbe9"></path><path d="M0 432L22.8 435.5C45.7 439 91.3 446 137 455.3C182.7 464.7 228.3 476.3 274 481C319.7 485.7 365.3 483.3 411.2 477.5C457 471.7 503 462.3 548.8 451.5C594.7 440.7 640.3 428.3 686 427.7C731.7 427 777.3 438 823 439.7C868.7 441.3 914.3 433.7 937.2 429.8L960 426L960 541L937.2 541C914.3 541 868.7 541 823 541C777.3 541 731.7 541 686 541C640.3 541 594.7 541 548.8 541C503 541 457 541 411.2 541C365.3 541 319.7 541 274 541C228.3 541 182.7 541 137 541C91.3 541 45.7 541 22.8 541L0 541Z" fill="#ceab93"></path></svg>