<svg id="visual" viewBox="0 0 900 600" width="900" height="600" xmlns="http://www.w3.org/2000/svg" xmlns:xlink="http://www.w3.org/1999/xlink" version="1.1"><rect x="0" y="0" width="900" height="600" fill="#fff"></rect><path d="M0 391L21.5 400.7C43 410.3 86 429.7 128.8 430.3C171.7 431 214.3 413 257.2 415.3C300 417.7 343 440.3 385.8 444.8C428.7 449.3 471.3 435.7 514.2 434.7C557 433.7 600 445.3 642.8 438.3C685.7 431.3 728.3 405.7 771.2 392.8C814 380 857 380 878.5 380L900 380L900 601L878.5 601C857 601 814 601 771.2 601C728.3 601 685.7 601 642.8 601C600 601 557 601 514.2 601C471.3 601 428.7 601 385.8 601C343 601 300 601 257.2 601C214.3 601 171.7 601 128.8 601C86 601 43 601 21.5 601L0 601Z" fill="#fffbe9"></path><path d="M0 425L21.5 426.3C43 427.7 86 430.3 128.8 441.3C171.7 452.3 214.3 471.7 257.2 473.5C300 475.3 343 459.7 385.8 460.5C428.7 461.3 471.3 478.7 514.2 480C557 481.3 600 466.7 642.8 455.5C685.7 444.3 728.3 436.7 771.2 436.8C814 437 857 445 878.5 449L900 453L900 601L878.5 601C857 601 814 601 771.2 601C728.3 601 685.7 601 642.8 601C600 601 557 601 514.2 601C471.3 601 428.7 601 385.8 601C343 601 300 601 257.2 601C214.3 601 171.7 601 128.8 601C86 601 43 601 21.5 601L0 601Z" fill="#e5d3bb"></path><path d="M0 556L21.5 554.7C43 553.3 86 550.7 128.8 546.7C171.7 542.7 214.3 537.3 257.2 531.3C300 525.3 343 518.7 385.8 521.3C428.7 524 471.3 536 514.2 533.7C557 531.3 600 514.7 642.8 513.5C685.7 512.3 728.3 526.7 771.2 529.8C814 533 857 525 878.5 521L900 517L900 601L878.5 601C857 601 814 601 771.2 601C728.3 601 685.7 601 642.8 601C600 601 557 601 514.2 601C471.3 601 428.7 601 385.8 601C343 601 300 601 257.2 601C214.3 601 171.7 601 128.8 601C86 601 43 601 21.5 601L0 601Z" fill="#ceab93"></path></svg>